<?xml version="1.0" encoding="UTF-8" standalone="no"?>
<!DOCTYPE svg PUBLIC "-//W3C//DTD SVG 1.1//EN" "http://www.w3.org/Graphics/SVG/1.1/DTD/svg11.dtd">
<svg width="100%" height="100%" viewBox="0 0 1500 1500" version="1.1" xmlns="http://www.w3.org/2000/svg" xmlns:xlink="http://www.w3.org/1999/xlink" xml:space="preserve" xmlns:serif="http://www.serif.com/" style="fill-rule:evenodd;clip-rule:evenodd;stroke-linejoin:round;stroke-miterlimit:2;">
    <g transform="matrix(3.343321,0,0,3.343321,-397.47773,-126.732649)">
        <g transform="matrix(417.41786,0,0,417.41786,108,410)">
            <path d="M0.424,-0.722C0.471,-0.722 0.509,-0.716 0.539,-0.703C0.569,-0.69 0.595,-0.675 0.618,-0.657C0.625,-0.651 0.632,-0.648 0.638,-0.648C0.651,-0.648 0.659,-0.668 0.663,-0.708L0.686,-0.708C0.685,-0.681 0.684,-0.649 0.683,-0.611C0.682,-0.572 0.682,-0.521 0.682,-0.458L0.659,-0.458C0.654,-0.506 0.646,-0.546 0.635,-0.579C0.623,-0.611 0.6,-0.638 0.567,-0.661C0.553,-0.67 0.537,-0.678 0.518,-0.683C0.499,-0.688 0.481,-0.691 0.464,-0.691C0.425,-0.691 0.393,-0.68 0.368,-0.659C0.343,-0.638 0.323,-0.611 0.307,-0.578C0.293,-0.544 0.282,-0.507 0.276,-0.468C0.269,-0.428 0.266,-0.389 0.266,-0.352C0.266,-0.232 0.281,-0.144 0.31,-0.089C0.339,-0.034 0.378,-0.006 0.427,-0.006C0.438,-0.006 0.447,-0.007 0.455,-0.009C0.463,-0.011 0.47,-0.014 0.476,-0.018C0.483,-0.023 0.489,-0.03 0.492,-0.038C0.495,-0.046 0.497,-0.056 0.497,-0.068L0.497,-0.168C0.497,-0.201 0.494,-0.225 0.489,-0.241C0.484,-0.257 0.475,-0.268 0.46,-0.274C0.445,-0.28 0.424,-0.283 0.396,-0.284L0.396,-0.304C0.411,-0.303 0.43,-0.303 0.452,-0.302C0.474,-0.302 0.497,-0.302 0.521,-0.301C0.545,-0.301 0.567,-0.301 0.587,-0.301C0.619,-0.301 0.648,-0.301 0.675,-0.302C0.703,-0.303 0.724,-0.303 0.741,-0.304L0.741,-0.284C0.73,-0.283 0.721,-0.281 0.715,-0.277C0.709,-0.273 0.705,-0.265 0.703,-0.253C0.701,-0.241 0.7,-0.223 0.7,-0.198L0.7,-0L0.68,-0C0.679,-0.011 0.677,-0.024 0.672,-0.037C0.667,-0.05 0.66,-0.057 0.649,-0.057C0.644,-0.057 0.636,-0.056 0.627,-0.053C0.617,-0.05 0.602,-0.044 0.581,-0.034C0.555,-0.021 0.527,-0.01 0.498,-0.001C0.47,0.009 0.441,0.014 0.412,0.014C0.329,0.014 0.259,-0 0.203,-0.029C0.147,-0.058 0.105,-0.099 0.077,-0.153C0.05,-0.207 0.036,-0.272 0.036,-0.348C0.036,-0.423 0.053,-0.488 0.086,-0.544C0.119,-0.6 0.164,-0.644 0.223,-0.675C0.281,-0.706 0.348,-0.722 0.424,-0.722Z" style="fill:rgb(84,180,53);fill-rule:nonzero;"/>
        </g>
        <g transform="matrix(417.41786,0,0,417.41786,423.567902,410)">
            <path d="M0.03,-0.722L0.063,-0.722L0.335,0.014L0.302,0.014L0.03,-0.722Z" style="fill:rgb(84,180,53);fill-rule:nonzero;"/>
        </g>
        <g transform="matrix(417.41786,0,0,417.41786,576.342838,410)">
        </g>
    </g>
</svg>
